<?xml version="1.0" standalone="no"?>
<!DOCTYPE svg PUBLIC "-//W3C//DTD SVG 20010904//EN"
 "http://www.w3.org/TR/2001/REC-SVG-20010904/DTD/svg10.dtd">
<svg version="1.0" xmlns="http://www.w3.org/2000/svg"
 width="256.000000pt" height="256.000000pt" viewBox="0 0 256.000000 256.000000"
 preserveAspectRatio="xMidYMid meet">
<metadata>
Created by potrace 1.11, written by Peter Selinger 2001-2013
</metadata>
<g transform="translate(0.000000,256.000000) scale(0.100000,-0.100000)"
fill="#000000" stroke="none">
<path d="M1226 2455 l-26 -24 0 -536 0 -535 -373 0 -373 0 -165 -122 c-204
-152 -212 -160 -206 -205 3 -19 9 -39 14 -43 4 -5 86 -68 182 -139 l174 -131
374 0 373 0 0 -240 0 -240 -175 0 -176 0 -25 -27 c-21 -23 -25 -35 -20 -63 11
-72 -2 -70 476 -70 l427 0 28 26 c23 21 27 31 22 61 -11 66 -17 68 -217 71
l-180 3 0 640 0 639 373 0 374 0 172 130 c95 71 179 137 187 147 17 23 18 64
1 85 -6 9 -90 75 -186 147 l-174 131 -373 0 -372 0 -4 141 c-3 134 -4 142 -27
160 -32 26 -73 24 -105 -6z"/>
</g>
</svg>
